<svg width="709" height="476" viewBox="0 0 709 476" fill="none" xmlns="http://www.w3.org/2000/svg">
<path opacity="0.8" d="M372.5 49.1109C332.5 3.51088 280.5 -1.55579 259.5 1.61088C312.5 49.6114 298 69.1104 329 111.61C351 140.61 398.5 101.11 399.5 134.61C400.5 168.11 326 200.61 277 201.61C432.5 256.61 480.5 121.11 489 69.1104C445.5 120.11 411 91.6109 372.5 49.1109Z" fill="url(#paint0_linear_2199_2279)"/>
<path opacity="0.8" d="M302 58.6094C254 53.0094 214.333 73.6094 200.5 84.6094C289.5 84.6094 279.5 142.329 330.5 142.329C366 142.329 397.667 103.329 399 133.329C400.798 173.789 352 217.61 323 245.61C481 187.61 488 79.1104 490 58.6094C492 38.1085 509.5 35.6096 526.5 30.6096C511 14.1096 487 18.1096 466 25.1096C445 32.1096 436 25.1096 421.5 25.1096C425.5 32.1096 420.5 34.6096 451.5 47.1096C416 75.1096 362 65.6094 302 58.6094Z" fill="url(#paint1_linear_2199_2279)"/>
<g opacity="0.8">
<path d="M235 46.6104C256.6 40.6104 271.667 41.7771 276.5 43.1104C265 16.1098 212.5 11.611 182.5 15.611C191.167 24.7775 213.8 43.8104 235 46.6104Z" fill="url(#paint2_linear_2199_2279)"/>
<path d="M287 225.61C299.8 233.21 308 231.777 310.5 230.11C299 244.11 276.5 248.11 255.5 244.61C260.167 238.11 273 225.21 287 225.61Z" fill="url(#paint3_linear_2199_2279)"/>
</g>
<path d="M13.2001 445.805V430.005H62.0001C65.2001 430.005 67.9335 429.339 70.2001 428.005C72.6001 426.539 74.4001 424.672 75.6001 422.405C76.8001 420.139 77.4001 417.739 77.4001 415.205C77.4001 412.805 76.8668 410.605 75.8001 408.605C74.7335 406.472 73.0668 404.805 70.8001 403.605C68.6668 402.272 66.0668 401.605 63.0001 401.605H42.4001C35.8668 401.605 30.1335 400.539 25.2001 398.405C20.4001 396.139 16.6001 392.872 13.8001 388.605C11.1335 384.339 9.80012 379.139 9.80012 373.005C9.80012 367.805 11.0668 363.005 13.6001 358.605C16.1335 354.205 19.6668 350.672 24.2001 348.005C28.7335 345.205 33.9335 343.805 39.8001 343.805H86.8001V359.605H41.6001C37.4668 359.605 34.2001 360.872 31.8001 363.405C29.4001 365.939 28.2001 368.939 28.2001 372.405C28.2001 375.739 29.4001 378.672 31.8001 381.205C34.3335 383.605 37.8668 384.805 42.4001 384.805H62.0001C69.3335 384.805 75.4668 386.005 80.4001 388.405C85.4668 390.672 89.2668 394.005 91.8001 398.405C94.4668 402.805 95.8001 408.205 95.8001 414.605C95.8001 420.072 94.4668 425.205 91.8001 430.005C89.1335 434.672 85.4001 438.472 80.6001 441.405C75.9335 444.339 70.4668 445.805 64.2001 445.805H13.2001ZM167.869 448.205C158.669 448.205 150.402 446.339 143.069 442.605C135.869 438.739 130.202 433.405 126.069 426.605C122.069 419.805 120.069 411.872 120.069 402.805V343.805H138.669V402.605C138.669 408.739 140.002 414.072 142.669 418.605C145.336 423.005 148.869 426.405 153.269 428.805C157.802 431.205 162.602 432.405 167.669 432.405C172.869 432.405 177.669 431.205 182.069 428.805C186.602 426.405 190.202 423.005 192.869 418.605C195.669 414.072 197.069 408.739 197.069 402.605V343.805H215.669V402.805C215.669 411.872 213.602 419.805 209.469 426.605C205.336 433.405 199.669 438.739 192.469 442.605C185.269 446.339 177.069 448.205 167.869 448.205ZM259.874 445.805C255.607 445.805 251.807 444.805 248.474 442.805C245.14 440.805 242.474 438.139 240.474 434.805C238.607 431.339 237.674 427.605 237.674 423.605C237.674 419.339 238.674 415.605 240.674 412.405C242.807 409.072 245.874 406.072 249.874 403.405L296.874 373.605C298.874 372.405 300.14 371.205 300.674 370.005C301.34 368.805 301.674 367.539 301.674 366.205C301.674 364.605 301.007 363.139 299.674 361.805C298.34 360.339 296.607 359.605 294.474 359.605H242.674V343.805H300.074C304.207 343.805 307.874 344.805 311.074 346.805C314.407 348.805 317.007 351.539 318.874 355.005C320.874 358.339 321.874 362.005 321.874 366.005C321.874 370.139 320.807 373.939 318.674 377.405C316.674 380.739 313.74 383.672 309.874 386.205L262.874 416.005C260.874 417.205 259.54 418.405 258.874 419.605C258.34 420.805 258.074 422.072 258.074 423.405C258.074 425.005 258.74 426.539 260.074 428.005C261.407 429.339 263.207 430.005 265.474 430.005H320.074V445.805H259.874ZM389.422 448.205C379.555 448.205 371.022 445.872 363.822 441.205C356.622 436.405 351.089 429.939 347.222 421.805C343.355 413.672 341.422 404.672 341.422 394.805C341.422 384.805 343.555 375.805 347.822 367.805C352.089 359.672 358.222 353.272 366.222 348.605C374.222 343.805 383.822 341.405 395.022 341.405C405.822 341.405 415.089 343.739 422.822 348.405C430.555 353.072 436.489 359.405 440.622 367.405C444.889 375.405 447.022 384.339 447.022 394.205V445.805H428.422V425.005H428.022C426.022 428.872 423.289 432.605 419.822 436.205C416.489 439.672 412.289 442.539 407.222 444.805C402.155 447.072 396.222 448.205 389.422 448.205ZM394.222 432.405C400.889 432.405 406.755 430.805 411.822 427.605C417.022 424.272 421.022 419.739 423.822 414.005C426.755 408.139 428.222 401.605 428.222 394.405C428.222 387.339 426.822 381.005 424.022 375.405C421.355 369.805 417.489 365.405 412.422 362.205C407.355 358.872 401.422 357.205 394.622 357.205C387.422 357.205 381.222 358.872 376.022 362.205C370.955 365.539 367.022 370.072 364.222 375.805C361.555 381.405 360.222 387.805 360.222 395.005C360.222 401.939 361.555 408.272 364.222 414.005C366.889 419.605 370.755 424.072 375.822 427.405C380.889 430.739 387.022 432.405 394.222 432.405ZM476.319 445.805V299.805H494.719V386.605H522.719L549.519 343.805H569.919L540.919 389.405C550.519 392.205 557.986 397.472 563.319 405.205C568.786 412.805 571.519 421.672 571.519 431.805V445.805H552.919V431.805C552.919 426.205 551.652 421.205 549.119 416.805C546.719 412.405 543.319 408.939 538.919 406.405C534.519 403.739 529.452 402.405 523.719 402.405H494.719V445.805H476.319ZM645.603 448.205C636.403 448.205 628.137 446.339 620.803 442.605C613.603 438.739 607.937 433.405 603.803 426.605C599.803 419.805 597.803 411.872 597.803 402.805V343.805H616.403V402.605C616.403 408.739 617.737 414.072 620.403 418.605C623.07 423.005 626.603 426.405 631.003 428.805C635.537 431.205 640.337 432.405 645.403 432.405C650.603 432.405 655.403 431.205 659.803 428.805C664.337 426.405 667.937 423.005 670.603 418.605C673.403 414.072 674.803 408.739 674.803 402.605V343.805H693.403V402.805C693.403 411.872 691.337 419.805 687.203 426.605C683.07 433.405 677.403 438.739 670.203 442.605C663.003 446.339 654.803 448.205 645.603 448.205Z" fill="#101010"/>
<defs>
<linearGradient id="paint0_linear_2199_2279" x1="477.525" y1="177.385" x2="241.252" y2="75.3957" gradientUnits="userSpaceOnUse">
<stop stop-color="#43F6AB"/>
<stop offset="1" stop-color="#00A4AF"/>
</linearGradient>
<linearGradient id="paint1_linear_2199_2279" x1="510.2" y1="206.243" x2="211.805" y2="33.7081" gradientUnits="userSpaceOnUse">
<stop stop-color="#43F6AB"/>
<stop offset="1" stop-color="#00A4AF"/>
</linearGradient>
<linearGradient id="paint2_linear_2199_2279" x1="304.1" y1="205.589" x2="155.126" y2="172.482" gradientUnits="userSpaceOnUse">
<stop stop-color="#43F6AB"/>
<stop offset="1" stop-color="#00A4AF"/>
</linearGradient>
<linearGradient id="paint3_linear_2199_2279" x1="304.1" y1="205.589" x2="155.126" y2="172.482" gradientUnits="userSpaceOnUse">
<stop stop-color="#43F6AB"/>
<stop offset="1" stop-color="#00A4AF"/>
</linearGradient>
</defs>
</svg>
