<svg width="709" height="476" viewBox="0 0 709 476" fill="none" xmlns="http://www.w3.org/2000/svg">
<path opacity="0.8" d="M372.5 49.1109C332.5 3.51088 280.5 -1.55579 259.5 1.61088C312.5 49.6114 298 69.1104 329 111.61C351 140.61 398.5 101.11 399.5 134.61C400.5 168.11 326 200.61 277 201.61C432.5 256.61 480.5 121.11 489 69.1104C445.5 120.11 411 91.6109 372.5 49.1109Z" fill="url(#paint0_linear_2199_2306)"/>
<path opacity="0.8" d="M302 58.6094C254 53.0094 214.333 73.6094 200.5 84.6094C289.5 84.6094 279.5 142.329 330.5 142.329C366 142.329 397.666 103.329 399 133.329C400.798 173.789 352 217.61 323 245.61C481 187.61 488 79.1104 490 58.6094C492 38.1085 509.5 35.6096 526.5 30.6096C511 14.1096 487 18.1096 466 25.1096C445 32.1096 436 25.1096 421.5 25.1096C425.5 32.1096 420.5 34.6096 451.5 47.1096C416 75.1096 362 65.6094 302 58.6094Z" fill="url(#paint1_linear_2199_2306)"/>
<g opacity="0.8">
<path d="M235 46.6104C256.6 40.6104 271.666 41.7771 276.5 43.1104C265 16.1098 212.5 11.611 182.5 15.611C191.166 24.7775 213.8 43.8104 235 46.6104Z" fill="url(#paint2_linear_2199_2306)"/>
<path d="M287 225.61C299.8 233.21 308 231.777 310.5 230.11C299 244.11 276.5 248.11 255.5 244.61C260.166 238.11 273 225.21 287 225.61Z" fill="url(#paint3_linear_2199_2306)"/>
</g>
<path d="M13.1995 445.805V430.005H61.9995C65.1995 430.005 67.9328 429.339 70.1995 428.005C72.5995 426.539 74.3995 424.672 75.5995 422.405C76.7995 420.139 77.3995 417.739 77.3995 415.205C77.3995 412.805 76.8662 410.605 75.7995 408.605C74.7328 406.472 73.0662 404.805 70.7995 403.605C68.6662 402.272 66.0662 401.605 62.9995 401.605H42.3995C35.8662 401.605 30.1328 400.539 25.1995 398.405C20.3995 396.139 16.5995 392.872 13.7995 388.605C11.1328 384.339 9.79951 379.139 9.79951 373.005C9.79951 367.805 11.0662 363.005 13.5995 358.605C16.1328 354.205 19.6662 350.672 24.1995 348.005C28.7328 345.205 33.9328 343.805 39.7995 343.805H86.7995V359.605H41.5995C37.4662 359.605 34.1995 360.872 31.7995 363.405C29.3995 365.939 28.1995 368.939 28.1995 372.405C28.1995 375.739 29.3995 378.672 31.7995 381.205C34.3328 383.605 37.8662 384.805 42.3995 384.805H61.9995C69.3328 384.805 75.4662 386.005 80.3995 388.405C85.4662 390.672 89.2662 394.005 91.7995 398.405C94.4662 402.805 95.7995 408.205 95.7995 414.605C95.7995 420.072 94.4662 425.205 91.7995 430.005C89.1328 434.672 85.3995 438.472 80.5995 441.405C75.9329 444.339 70.4662 445.805 64.1995 445.805H13.1995ZM167.868 448.205C158.668 448.205 150.402 446.339 143.068 442.605C135.868 438.739 130.202 433.405 126.068 426.605C122.068 419.805 120.068 411.872 120.068 402.805V343.805H138.668V402.605C138.668 408.739 140.002 414.072 142.668 418.605C145.335 423.005 148.868 426.405 153.268 428.805C157.802 431.205 162.602 432.405 167.668 432.405C172.868 432.405 177.668 431.205 182.068 428.805C186.602 426.405 190.202 423.005 192.868 418.605C195.668 414.072 197.068 408.739 197.068 402.605V343.805H215.668V402.805C215.668 411.872 213.602 419.805 209.468 426.605C205.335 433.405 199.668 438.739 192.468 442.605C185.268 446.339 177.068 448.205 167.868 448.205ZM259.873 445.805C255.606 445.805 251.806 444.805 248.473 442.805C245.14 440.805 242.473 438.139 240.473 434.805C238.606 431.339 237.673 427.605 237.673 423.605C237.673 419.339 238.673 415.605 240.673 412.405C242.806 409.072 245.873 406.072 249.873 403.405L296.873 373.605C298.873 372.405 300.14 371.205 300.673 370.005C301.34 368.805 301.673 367.539 301.673 366.205C301.673 364.605 301.006 363.139 299.673 361.805C298.34 360.339 296.606 359.605 294.473 359.605H242.673V343.805H300.073C304.206 343.805 307.873 344.805 311.073 346.805C314.406 348.805 317.006 351.539 318.873 355.005C320.873 358.339 321.873 362.005 321.873 366.005C321.873 370.139 320.806 373.939 318.673 377.405C316.673 380.739 313.74 383.672 309.873 386.205L262.873 416.005C260.873 417.205 259.54 418.405 258.873 419.605C258.34 420.805 258.073 422.072 258.073 423.405C258.073 425.005 258.74 426.539 260.073 428.005C261.406 429.339 263.206 430.005 265.473 430.005H320.073V445.805H259.873ZM389.421 448.205C379.555 448.205 371.021 445.872 363.821 441.205C356.621 436.405 351.088 429.939 347.221 421.805C343.355 413.672 341.421 404.672 341.421 394.805C341.421 384.805 343.555 375.805 347.821 367.805C352.088 359.672 358.221 353.272 366.221 348.605C374.221 343.805 383.821 341.405 395.021 341.405C405.821 341.405 415.088 343.739 422.821 348.405C430.555 353.072 436.488 359.405 440.621 367.405C444.888 375.405 447.021 384.339 447.021 394.205V445.805H428.421V425.005H428.021C426.021 428.872 423.288 432.605 419.821 436.205C416.488 439.672 412.288 442.539 407.221 444.805C402.155 447.072 396.221 448.205 389.421 448.205ZM394.221 432.405C400.888 432.405 406.755 430.805 411.821 427.605C417.021 424.272 421.021 419.739 423.821 414.005C426.755 408.139 428.221 401.605 428.221 394.405C428.221 387.339 426.821 381.005 424.021 375.405C421.355 369.805 417.488 365.405 412.421 362.205C407.355 358.872 401.421 357.205 394.621 357.205C387.421 357.205 381.221 358.872 376.021 362.205C370.955 365.539 367.021 370.072 364.221 375.805C361.555 381.405 360.221 387.805 360.221 395.005C360.221 401.939 361.555 408.272 364.221 414.005C366.888 419.605 370.755 424.072 375.821 427.405C380.888 430.739 387.021 432.405 394.221 432.405ZM476.318 445.805V299.805H494.718V386.605H522.718L549.518 343.805H569.918L540.918 389.405C550.518 392.205 557.985 397.472 563.318 405.205C568.785 412.805 571.518 421.672 571.518 431.805V445.805H552.918V431.805C552.918 426.205 551.652 421.205 549.118 416.805C546.718 412.405 543.318 408.939 538.918 406.405C534.518 403.739 529.452 402.405 523.718 402.405H494.718V445.805H476.318ZM645.603 448.205C636.403 448.205 628.136 446.339 620.803 442.605C613.603 438.739 607.936 433.405 603.803 426.605C599.803 419.805 597.803 411.872 597.803 402.805V343.805H616.403V402.605C616.403 408.739 617.736 414.072 620.403 418.605C623.069 423.005 626.603 426.405 631.003 428.805C635.536 431.205 640.336 432.405 645.403 432.405C650.603 432.405 655.403 431.205 659.803 428.805C664.336 426.405 667.936 423.005 670.603 418.605C673.403 414.072 674.803 408.739 674.803 402.605V343.805H693.403V402.805C693.403 411.872 691.336 419.805 687.203 426.605C683.069 433.405 677.403 438.739 670.203 442.605C663.003 446.339 654.803 448.205 645.603 448.205Z" fill="white"/>
<defs>
<linearGradient id="paint0_linear_2199_2306" x1="477.525" y1="177.385" x2="241.251" y2="75.3957" gradientUnits="userSpaceOnUse">
<stop stop-color="#43F6AB"/>
<stop offset="1" stop-color="#00A4AF"/>
</linearGradient>
<linearGradient id="paint1_linear_2199_2306" x1="510.199" y1="206.243" x2="211.804" y2="33.7081" gradientUnits="userSpaceOnUse">
<stop stop-color="#43F6AB"/>
<stop offset="1" stop-color="#00A4AF"/>
</linearGradient>
<linearGradient id="paint2_linear_2199_2306" x1="304.1" y1="205.589" x2="155.125" y2="172.482" gradientUnits="userSpaceOnUse">
<stop stop-color="#43F6AB"/>
<stop offset="1" stop-color="#00A4AF"/>
</linearGradient>
<linearGradient id="paint3_linear_2199_2306" x1="304.1" y1="205.589" x2="155.125" y2="172.482" gradientUnits="userSpaceOnUse">
<stop stop-color="#43F6AB"/>
<stop offset="1" stop-color="#00A4AF"/>
</linearGradient>
</defs>
</svg>
